<?xml version="1.0" encoding="utf-8"?>
<!-- Generator: Adobe Illustrator 18.0.0, SVG Export Plug-In . SVG Version: 6.00 Build 0)  -->
<!DOCTYPE svg PUBLIC "-//W3C//DTD SVG 1.1//EN" "http://www.w3.org/Graphics/SVG/1.1/DTD/svg11.dtd">
<svg version="1.1" id="Layer_1" xmlns="http://www.w3.org/2000/svg" xmlns:xlink="http://www.w3.org/1999/xlink" x="0px" y="0px"
	 viewBox="0 0 1680.8 934" enable-background="new 0 0 1680.8 934" xml:space="preserve">
<g>
	<defs>
		<rect id="SVGID_17_" x="935.1" y="474.3" width="644.8" height="276.9"/>
	</defs>
	<clipPath id="SVGID_2_">
		<use xlink:href="#SVGID_17_"  overflow="visible"/>
	</clipPath>
	<rect x="938.3" y="477.5" clip-path="url(#SVGID_2_)" fill="none" stroke="#8B743D" stroke-width="5" width="638" height="270"/>
</g>
<g>
	<defs>
		<rect id="SVGID_19_" x="252.6" y="534.7" width="160.1" height="91.3"/>
	</defs>
	<clipPath id="SVGID_4_">
		<use xlink:href="#SVGID_19_"  overflow="visible"/>
	</clipPath>
	<polygon clip-path="url(#SVGID_4_)" fill="none" stroke="#8B743D" stroke-width="5" points="257.3,540 256.3,621.5 365.3,621.5 
		365.3,598.1 409.3,620.9 408.3,540 364.3,566.1 364.3,539.5 	"/>
</g>
<g>
	<defs>
		<rect id="SVGID_21_" x="170.7" y="641.9" width="324" height="45"/>
	</defs>
	<clipPath id="SVGID_6_">
		<use xlink:href="#SVGID_21_"  overflow="visible"/>
	</clipPath>
	<g clip-path="url(#SVGID_6_)">
		<text transform="matrix(1 0 0 1 178.6816 674.0397)"><tspan x="0" y="0" fill="#8B743D" font-family="'Lato-Black'" font-size="25">THREE.</tspan><tspan x="84.6" y="0" fill="#8B743D" font-family="'Lato-Black'" font-size="25">P</tspan><tspan x="100.2" y="0" fill="#8B743D" font-family="'Lato-Black'" font-size="25">erspecti</tspan><tspan x="192.5" y="0" fill="#8B743D" font-family="'Lato-Black'" font-size="25">v</tspan><tspan x="205.8" y="0" fill="#8B743D" font-family="'Lato-Black'" font-size="25">eCame</tspan><tspan x="284.4" y="0" fill="#8B743D" font-family="'Lato-Black'" font-size="25">r</tspan><tspan x="294.5" y="0" fill="#8B743D" font-family="'Lato-Black'" font-size="25">a</tspan></text>
	</g>
</g>
<g>
	<defs>
		<rect id="SVGID_23_" x="506.6" y="123.5" width="102.6" height="174.6"/>
	</defs>
	<clipPath id="SVGID_8_">
		<use xlink:href="#SVGID_23_"  overflow="visible"/>
	</clipPath>
	<g clip-path="url(#SVGID_8_)">
		<defs>
			<rect id="SVGID_25_" x="506.6" y="123.5" width="102.6" height="174.6"/>
		</defs>
		<clipPath id="SVGID_10_">
			<use xlink:href="#SVGID_25_"  overflow="visible"/>
		</clipPath>
		<path clip-path="url(#SVGID_10_)" fill="#8B743D" d="M554.8,298.1c-2.7-1.7-5.8-2.9-7-7.1h19.9c-1.2,4.3-4.3,5.6-7.3,7.1H554.8z"
			/>
		<path clip-path="url(#SVGID_10_)" fill="#8B743D" d="M557.9,252.2c-5.2,0-10.4,0-15.6,0c-4.7,0-7.1-1.5-7.7-6.3
			c-1.8-13.3-7.8-24.8-14.7-36.1c-4.6-7.6-8.7-15.5-11.2-24.2c-7.7-26.6,6.8-52.7,33.7-59.9c18-4.8,35-2.2,49.8,9.5
			c15.9,12.7,21.4,34,13.6,54.2c-3.2,8.4-7.8,16.4-12.3,24.3c-4.6,8.2-9,16.4-11,25.7c-0.5,2.4-0.8,4.8-1.4,7.1c-1,3.9-3,5.4-7,5.5
			C568.7,252.2,563.3,252.2,557.9,252.2 M540.9,245.8c11,0,21.7,0,32.5-0.1c0.6,0,1.6-1.1,1.8-1.8c0.7-2.7,1.1-5.5,1.8-8.1
			c2.4-9.7,7.6-18.1,12.3-26.7c3.7-6.8,7.5-13.7,10.3-20.9c5.6-14.4,4.4-28.3-5-40.9c-10.8-14.6-31.3-21-50.1-15.7
			c-18.7,5.2-31.4,20.9-31.7,39.1c-0.2,9.4,2.6,18,6.8,26.1c3.6,7,7.6,13.8,11.4,20.7c3.7,6.8,6.9,13.8,8.4,21.4
			C540,241.1,540.4,243.3,540.9,245.8"/>
		<path clip-path="url(#SVGID_10_)" fill="#8B743D" d="M578.2,255.7c0,9,0.1,17.9-0.1,26.7c-0.1,3.2-2.2,5.4-5,5.4
			c-10.1,0.1-20.2,0.1-30.4,0c-2.9,0-5.1-2.2-5.1-5.5c-0.1-8.8,0-17.6,0-26.6H578.2z"/>
		<path clip-path="url(#SVGID_10_)" fill="#8B743D" d="M572.8,196.8c-1.1,4.4-2,8.4-2.9,12.3c-1.9,8.1-3.9,16.2-5.9,24.3
			c-0.7,2.9-0.8,2.9-4.6,2.3C559.6,231.5,570.7,197.9,572.8,196.8"/>
		<path clip-path="url(#SVGID_10_)" fill="#8B743D" d="M556.4,235.8c-3,0.8-4.2,0-4.8-2.5c-2.6-11.6-5.5-23.1-8.3-34.6
			c-0.1-0.5,0-1,0-1.6C545,197.8,555.9,230.2,556.4,235.8"/>
		<path clip-path="url(#SVGID_10_)" fill="#8B743D" d="M572,192.2c-3.7-0.3-7-0.5-10.3-0.7c-0.7,0-1.3,0.5-2,0.5
			c-3.4,0-6.8,0-10.3,0c-1.1,0-2.3-0.2-3.3,0.1c-2.7,0.6-5.6-0.3-6.3-2.4c-0.2-0.5,0.2-1.2,0.3-1.8c0.8,0.2,1.8,0.3,2.3,0.7
			c1.7,1.7,2.3,1.7,3.8,0c1-1.2,2-1.2,3,0c1.5,1.8,2.4,1.8,3.8,0.1c1.1-1.3,2-1.3,3.1,0c1.3,1.6,2.3,1.5,3.7-0.2
			c1-1.3,1.9-1.2,2.9,0c1.6,1.8,2.2,1.8,3.9-0.1c1-1.1,1.9-1,2.9,0c1.8,1.9,2.2,1.8,3.9,0c0.4-0.4,1.3-0.5,2-0.7
			c0.2,0.5,0.7,1.1,0.6,1.5C575.5,191.2,573.9,192.1,572,192.2"/>
	</g>
</g>
<g>
	<defs>
		<rect id="SVGID_27_" x="447.9" y="312.6" width="220" height="45"/>
	</defs>
	<clipPath id="SVGID_12_">
		<use xlink:href="#SVGID_27_"  overflow="visible"/>
	</clipPath>
	<g clip-path="url(#SVGID_12_)">
		<text transform="matrix(1 0 0 1 455.8954 344.7675)"><tspan x="0" y="0" fill="#8B743D" font-family="'Lato-Black'" font-size="25">THREE.</tspan><tspan x="84.6" y="0" fill="#8B743D" font-family="'Lato-Black'" font-size="25">P</tspan><tspan x="100.2" y="0" fill="#8B743D" font-family="'Lato-Black'" font-size="25">ointLight</tspan></text>
	</g>
</g>
<g>
	<defs>
		<rect id="SVGID_29_" x="1176" y="412.1" width="163.2" height="45"/>
	</defs>
	<clipPath id="SVGID_14_">
		<use xlink:href="#SVGID_29_"  overflow="visible"/>
	</clipPath>
	<g clip-path="url(#SVGID_14_)">
		<text transform="matrix(1 0 0 1 1184.0356 444.3081)" fill="#8B743D" font-family="'Lato-Black'" font-size="25">THREE.Mesh</text>
	</g>
</g>
<g>
	<defs>
		<rect id="SVGID_31_" x="1142.1" y="198.6" width="199.4" height="204.4"/>
	</defs>
	<clipPath id="SVGID_16_">
		<use xlink:href="#SVGID_31_"  overflow="visible"/>
	</clipPath>
	<g clip-path="url(#SVGID_16_)">
		<defs>
			<rect id="SVGID_33_" x="1142.1" y="198.6" width="199.3" height="204.4"/>
		</defs>
		<clipPath id="SVGID_18_">
			<use xlink:href="#SVGID_33_"  overflow="visible"/>
		</clipPath>
		
			<rect x="1145.6" y="201.7" clip-path="url(#SVGID_18_)" fill="none" stroke="#8B743D" stroke-width="6.3488" stroke-linecap="round" stroke-linejoin="round" stroke-miterlimit="10" width="138.4" height="144.1"/>
		
			<rect x="1181.2" y="237.3" clip-path="url(#SVGID_18_)" fill="none" stroke="#8B743D" stroke-width="6.3488" stroke-linecap="round" stroke-linejoin="round" stroke-miterlimit="10" width="156.8" height="162.5"/>
		
			<line clip-path="url(#SVGID_18_)" fill="none" stroke="#8B743D" stroke-width="6.3488" stroke-linecap="round" stroke-linejoin="round" stroke-miterlimit="10" x1="1145.3" y1="201.7" x2="1181.5" y2="237"/>
		
			<line clip-path="url(#SVGID_18_)" fill="none" stroke="#8B743D" stroke-width="6.3488" stroke-linecap="round" stroke-linejoin="round" stroke-miterlimit="10" x1="1284.3" y1="201.7" x2="1338.3" y2="237"/>
		
			<line clip-path="url(#SVGID_18_)" fill="none" stroke="#8B743D" stroke-width="6.3488" stroke-linecap="round" stroke-linejoin="round" stroke-miterlimit="10" x1="1145.3" y1="345.8" x2="1181.5" y2="399.5"/>
		
			<line clip-path="url(#SVGID_18_)" fill="none" stroke="#8B743D" stroke-width="6.3488" stroke-linecap="round" stroke-linejoin="round" stroke-miterlimit="10" x1="1338.3" y1="399.5" x2="1284.3" y2="345.8"/>
	</g>
</g>
</svg>
