<?xml version="1.0" encoding="utf-8"?>
<!-- Generator: Adobe Illustrator 18.0.0, SVG Export Plug-In . SVG Version: 6.00 Build 0)  -->
<!DOCTYPE svg PUBLIC "-//W3C//DTD SVG 1.1//EN" "http://www.w3.org/Graphics/SVG/1.1/DTD/svg11.dtd">
<svg version="1.1" id="Layer_1" xmlns="http://www.w3.org/2000/svg" xmlns:xlink="http://www.w3.org/1999/xlink" x="0px" y="0px"
	 viewBox="0 0 1680.8 934" enable-background="new 0 0 1680.8 934" xml:space="preserve">
<g>
	<defs>
		<rect id="SVGID_1_" x="919.4" y="146" width="670.6" height="619.5"/>
	</defs>
	<clipPath id="SVGID_2_">
		<use xlink:href="#SVGID_1_"  overflow="visible"/>
	</clipPath>
	<rect x="923.3" y="149.5" clip-path="url(#SVGID_2_)" fill="none" stroke="#000000" stroke-width="5" width="663" height="612"/>
</g>
<g>
	<defs>
		<rect id="SVGID_3_" x="408.9" y="94.2" width="298.1" height="289.2"/>
	</defs>
	<clipPath id="SVGID_4_">
		<use xlink:href="#SVGID_3_"  overflow="visible"/>
	</clipPath>
	<rect x="412.3" y="97.5" clip-path="url(#SVGID_4_)" fill="none" stroke="#000000" stroke-width="5" width="291" height="282"/>
</g>
<g>
	<defs>
		<rect id="SVGID_5_" x="454.7" y="383" width="206.3" height="45"/>
	</defs>
	<clipPath id="SVGID_6_">
		<use xlink:href="#SVGID_5_"  overflow="visible"/>
	</clipPath>
	<g clip-path="url(#SVGID_6_)">
		<text transform="matrix(1 0 0 1 462.7329 415.152)" font-family="'Lato-Black'" font-size="25">THREE.</text>
	</g>
	<g clip-path="url(#SVGID_6_)">
		<text transform="matrix(1 0 0 1 546.7578 415.152)" font-family="'Lato-Black'" font-size="25">Object3d</text>
	</g>
</g>
<g>
	<defs>
		<rect id="SVGID_7_" x="146.8" y="480.5" width="371.8" height="222.7"/>
	</defs>
	<clipPath id="SVGID_8_">
		<use xlink:href="#SVGID_7_"  overflow="visible"/>
	</clipPath>
	<rect x="150.3" y="483.5" clip-path="url(#SVGID_8_)" fill="none" stroke="#000000" stroke-width="5" width="365" height="216"/>
</g>
<g>
	<defs>
		<rect id="SVGID_9_" x="229.5" y="700.3" width="206.4" height="45"/>
	</defs>
	<clipPath id="SVGID_10_">
		<use xlink:href="#SVGID_9_"  overflow="visible"/>
	</clipPath>
	<g clip-path="url(#SVGID_10_)">
		<text transform="matrix(1 0 0 1 237.494 732.4319)" font-family="'Lato-Black'" font-size="25">THREE.</text>
	</g>
	<g clip-path="url(#SVGID_10_)">
		<text transform="matrix(1 0 0 1 321.5189 732.4319)" font-family="'Lato-Black'" font-size="25">Object3d</text>
	</g>
</g>
<g>
	<defs>
		<rect id="SVGID_11_" x="1114.1" y="781" width="206.3" height="45"/>
	</defs>
	<clipPath id="SVGID_12_">
		<use xlink:href="#SVGID_11_"  overflow="visible"/>
	</clipPath>
	<g clip-path="url(#SVGID_12_)">
		<text transform="matrix(1 0 0 1 1122.0507 813.2017)" font-family="'Lato-Black'" font-size="25">THREE.</text>
	</g>
	<g clip-path="url(#SVGID_12_)">
		<text transform="matrix(1 0 0 1 1206.0756 813.2017)" font-family="'Lato-Black'" font-size="25">Object3d</text>
	</g>
</g>
</svg>
